<?xml version="1.0" encoding="UTF-8"?>
<svg id="LOGO" xmlns="http://www.w3.org/2000/svg" xmlns:xlink="http://www.w3.org/1999/xlink" viewBox="0 0 333.32 122.63">
  <defs>
    <style>
      .cls-1, .cls-2 {
        fill: #fff;
      }

      .cls-2, .cls-3, .cls-4, .cls-5, .cls-6 {
        fill-rule: evenodd;
      }

      .cls-7, .cls-5 {
        fill: #b6002a;
      }

      .cls-8 {
        fill: none;
      }

      .cls-9 {
        fill: url(#radial-gradient-5);
      }

      .cls-10 {
        fill: url(#radial-gradient-3);
      }

      .cls-11 {
        fill: url(#radial-gradient-2);
      }

      .cls-12 {
        fill: url(#radial-gradient-4);
      }

      .cls-3 {
        fill: url(#radial-gradient-7);
      }

      .cls-4 {
        fill: #de5365;
      }

      .cls-13 {
        fill: url(#radial-gradient-6);
      }

      .cls-6 {
        fill: url(#radial-gradient);
      }
    </style>
    <radialGradient id="radial-gradient" cx="47.11" cy="53.15" fx="47.11" fy="53.15" r="20" gradientUnits="userSpaceOnUse">
      <stop offset=".07" stop-color="#fff"/>
      <stop offset=".38" stop-color="#fadee4"/>
      <stop offset="1" stop-color="#de5365"/>
    </radialGradient>
    <radialGradient id="radial-gradient-2" cx="45.38" cy="37.4" fx="45.38" fy="37.4" r="15.37" gradientUnits="userSpaceOnUse">
      <stop offset=".21" stop-color="#de5365"/>
      <stop offset=".3" stop-color="#df5b6d"/>
      <stop offset=".44" stop-color="#e47382"/>
      <stop offset=".62" stop-color="#ec9aa6"/>
      <stop offset=".82" stop-color="#f7d0d7"/>
      <stop offset=".87" stop-color="#fadee4"/>
    </radialGradient>
    <radialGradient id="radial-gradient-3" cx="47.28" cy="66.66" fx="47.28" fy="66.66" r="17.13" gradientTransform="translate(0 -23.09) scale(1 .95)" gradientUnits="userSpaceOnUse">
      <stop offset="0" stop-color="#de5365"/>
      <stop offset=".09" stop-color="#df596a"/>
      <stop offset=".2" stop-color="#e26a7a"/>
      <stop offset=".34" stop-color="#e88795"/>
      <stop offset=".49" stop-color="#f0afb9"/>
      <stop offset=".64" stop-color="#fadee4"/>
      <stop offset=".77" stop-color="#fbe5ea"/>
      <stop offset=".96" stop-color="#fef9fa"/>
      <stop offset="1" stop-color="#fff"/>
    </radialGradient>
    <radialGradient id="radial-gradient-4" cx="40.61" cy="59.05" fx="40.61" fy="59.05" r="11.12" gradientUnits="userSpaceOnUse">
      <stop offset="0" stop-color="#fff"/>
      <stop offset=".41" stop-color="#fadee4"/>
      <stop offset="1" stop-color="#de5365"/>
    </radialGradient>
    <radialGradient id="radial-gradient-5" cx="40.64" cy="55.86" fx="40.64" fy="55.86" r="14.14" gradientUnits="userSpaceOnUse">
      <stop offset=".07" stop-color="#fff"/>
      <stop offset=".43" stop-color="#fadee4"/>
      <stop offset="1" stop-color="#de5365"/>
    </radialGradient>
    <radialGradient id="radial-gradient-6" cx="74.33" cy="43.16" fx="74.33" fy="43.16" r="28.51" gradientUnits="userSpaceOnUse">
      <stop offset=".31" stop-color="#de5365"/>
      <stop offset=".41" stop-color="#e36e7d"/>
      <stop offset=".63" stop-color="#f1b3bc"/>
      <stop offset=".76" stop-color="#fadee4"/>
    </radialGradient>
    <radialGradient id="radial-gradient-7" cx="48.02" cy="56.5" fx="48.02" fy="56.5" r="14.81" gradientUnits="userSpaceOnUse">
      <stop offset=".09" stop-color="#fff"/>
      <stop offset=".37" stop-color="#fadee4"/>
      <stop offset=".47" stop-color="#f2b7c0"/>
      <stop offset=".59" stop-color="#e98c99"/>
      <stop offset=".7" stop-color="#e36c7c"/>
      <stop offset=".79" stop-color="#df596b"/>
      <stop offset=".85" stop-color="#de5365"/>
    </radialGradient>
  </defs>
  <rect class="cls-8" width="333.32" height="122.63"/>
  <g>
    <g>
      <path class="cls-1" d="M75.33,91.29c0-.24-.02-.41-.04-.52-.15,0-.33,0-.54.01-.22,0-.45.02-.69.04-.25.01-.5.03-.75.06s-.49.05-.71.08c.02-.11.04-.22.05-.32.02-.11.02-.22.02-.32s0-.22-.02-.32c-.01-.11-.03-.22-.05-.32.33,0,.64.02.91.03.27,0,.54.02.83.02.28,0,.58,0,.91.01.33,0,.72,0,1.19,0s.86,0,1.19,0c.33,0,.63,0,.91-.01s.54-.01.8-.02c.26,0,.54-.02.85-.03-.02.11-.04.22-.05.32-.01.11-.02.22-.02.32s0,.22.02.32c.02.11.03.22.05.32-.2-.03-.42-.06-.66-.08s-.49-.04-.73-.06c-.24-.01-.47-.03-.68-.04-.22,0-.4-.01-.55-.01,0,.05-.02.12-.02.21,0,.09,0,.19,0,.31v4.46c0,.82,0,1.54.03,2.17.02.63.05,1.26.09,1.86-.17-.02-.35-.03-.55-.03h-1.33c-.2,0-.38,0-.55.03.04-.61.07-1.23.09-1.86.02-.63.03-1.36.03-2.17v-3.68c0-.29,0-.55,0-.78Z"/>
      <path class="cls-1" d="M81.28,91.13c-.02-.81-.05-1.62-.09-2.45.13.02.29.04.49.05.2.01.4.02.62.02s.42,0,.62-.02c.2-.01.36-.03.49-.05-.04.83-.07,1.64-.09,2.45-.02.81-.03,1.69-.03,2.65l.03.03c.26-.41.57-.73.94-.96.37-.23.79-.34,1.26-.34.74,0,1.3.21,1.7.64.4.43.6,1.12.6,2.07,0,.5,0,.94-.03,1.33-.02.38-.03.77-.03,1.15,0,.31,0,.66.02,1.02.01.37.03.72.05,1.07-.13-.02-.29-.03-.49-.03h-1.24c-.2,0-.36,0-.49.03.07-.51.11-1.11.13-1.8.02-.69.03-1.49.03-2.38,0-.62-.11-1.07-.32-1.36-.21-.29-.51-.43-.89-.43-.44,0-.77.19-.97.58-.21.38-.31.91-.31,1.59v.59c0,.14,0,.34,0,.6,0,.26.01.54.02.85,0,.31.02.62.04.94.02.32.03.6.05.83-.13-.02-.29-.03-.49-.03h-1.24c-.2,0-.36,0-.49.03.04-.8.07-1.6.09-2.4.02-.81.03-1.69.03-2.65v-.96c0-.96,0-1.85-.03-2.65Z"/>
      <path class="cls-1" d="M91.86,96.27c0,.39.04.76.12,1.11.08.34.2.64.36.89.16.25.37.45.62.59.25.14.54.21.88.21.68,0,1.28-.22,1.81-.66l.18.13-.32.83c-.25.19-.54.34-.88.45-.34.11-.8.17-1.36.17-.48,0-.94-.07-1.37-.2-.43-.13-.81-.35-1.14-.66-.33-.3-.59-.69-.78-1.16-.19-.47-.29-1.02-.29-1.67s.09-1.19.26-1.66.41-.86.71-1.18c.3-.31.66-.55,1.08-.71.42-.16.87-.24,1.36-.24.97,0,1.72.29,2.23.85.52.57.77,1.38.77,2.42v.31c0,.09,0,.15-.01.18h-4.23ZM94.13,95.6c-.02-.74-.11-1.33-.27-1.77-.16-.44-.43-.66-.82-.66-.22,0-.4.07-.55.22-.15.15-.27.34-.35.57-.09.23-.15.49-.2.78-.04.29-.07.58-.08.86h2.27Z"/>
      <path class="cls-1" d="M102.73,93.78c0-.96,0-1.85-.03-2.65-.02-.81-.05-1.62-.09-2.45.13.02.29.04.49.05.2.01.4.02.62.02s.42,0,.62-.02c.2-.01.36-.03.49-.05-.04.83-.07,1.64-.09,2.45-.02.81-.03,1.69-.03,2.65h.03c.17-.41.42-.73.77-.94.35-.22.74-.32,1.19-.32s.81.09,1.16.28c.35.19.65.44.9.75.25.32.44.69.58,1.11.14.43.21.89.21,1.38,0,.74-.1,1.36-.3,1.86-.2.51-.46.92-.78,1.23-.32.31-.68.54-1.07.66-.39.13-.78.19-1.16.19-.47,0-.87-.09-1.19-.27-.32-.18-.59-.42-.8-.71-.21.12-.41.26-.63.41-.21.16-.42.3-.64.44h-.35c.04-.83.07-1.64.09-2.45.02-.81.03-1.7.03-2.66v-.96ZM104.71,96.31c0,.43.02.83.05,1.21.03.37.1.7.19.97.09.27.22.48.38.64.16.16.38.24.64.24.42,0,.76-.26,1.01-.79.25-.53.38-1.39.38-2.59,0-1.71-.42-2.56-1.27-2.56-.21,0-.4.05-.57.15-.17.1-.32.26-.44.49-.12.23-.22.53-.28.9-.06.37-.1.82-.1,1.35Z"/>
      <path class="cls-1" d="M113.28,96.27c0,.39.04.76.12,1.11.08.34.2.64.36.89.16.25.37.45.62.59.25.14.54.21.88.21.68,0,1.28-.22,1.81-.66l.18.13-.32.83c-.25.19-.54.34-.88.45-.34.11-.8.17-1.36.17-.48,0-.94-.07-1.37-.2-.43-.13-.81-.35-1.14-.66-.33-.3-.59-.69-.78-1.16-.19-.47-.29-1.02-.29-1.67s.09-1.19.26-1.66.41-.86.71-1.18c.3-.31.66-.55,1.08-.71.42-.16.87-.24,1.36-.24.97,0,1.72.29,2.23.85.52.57.77,1.38.77,2.42v.31c0,.09,0,.15-.01.18h-4.23ZM115.55,95.6c-.02-.74-.11-1.33-.27-1.77-.16-.44-.43-.66-.82-.66-.22,0-.4.07-.54.22-.15.15-.27.34-.35.57-.09.23-.15.49-.2.78-.04.29-.07.58-.08.86h2.27Z"/>
      <path class="cls-1" d="M119.82,98.43c.09.14.21.27.35.38s.3.2.49.27c.19.07.41.1.67.1.34,0,.61-.09.8-.27.19-.18.28-.37.28-.58,0-.23-.08-.41-.25-.55s-.38-.26-.63-.38c-.25-.11-.52-.23-.82-.35-.29-.12-.57-.27-.82-.45-.25-.18-.46-.41-.63-.69s-.25-.63-.25-1.06.08-.77.23-1.07c.15-.3.35-.55.6-.74s.52-.33.83-.43c.31-.09.62-.14.92-.14.41,0,.78.06,1.1.18.32.12.65.29.98.52-.09.2-.16.41-.22.63-.06.23-.1.45-.13.66h-.41c-.03-.12-.08-.25-.15-.39-.07-.14-.16-.28-.28-.41-.12-.13-.26-.23-.43-.32-.17-.08-.37-.12-.6-.12-.29,0-.54.08-.74.24-.2.16-.3.36-.3.62,0,.24.09.42.26.57.17.14.39.27.64.38.26.11.54.22.84.32.3.11.58.25.84.42.26.17.47.4.64.67.17.28.26.63.26,1.06s-.08.8-.24,1.11c-.16.31-.37.56-.63.77-.27.2-.57.35-.91.44-.34.09-.7.13-1.07.13-.44,0-.84-.06-1.19-.19-.35-.13-.63-.26-.84-.4.12-.47.19-.94.22-1.41h.37c.06.16.14.31.23.45Z"/>
      <path class="cls-1" d="M129.5,93.17c0,.13.01.25.04.37l-1.3-.03c-.02.23-.04.49-.05.78-.01.29-.02.59-.03.9,0,.3-.01.6-.02.88,0,.29,0,.53,0,.72,0,.51.01.92.04,1.24.02.31.07.55.12.72.06.17.14.28.25.34s.25.09.41.09c.19,0,.32-.01.41-.04.09-.02.18-.06.27-.11v.6c-.2.09-.44.17-.74.24-.29.07-.58.1-.87.1-1.25,0-1.87-.75-1.87-2.24,0-.29,0-.61.02-.96,0-.36.02-.73.04-1.11.01-.38.03-.75.04-1.12,0-.37.01-.71.01-1.02h-1.03c.03-.1.04-.23.04-.35,0-.12-.01-.25-.04-.4l1.03.04c0-.3,0-.59-.01-.85-.01-.27-.02-.58-.04-.96.34-.14.68-.28,1.02-.43.33-.15.67-.31,1-.48l.15.1c-.02.16-.04.34-.05.55-.02.21-.03.43-.04.66-.01.23-.02.47-.03.71,0,.24,0,.47,0,.69l1.3-.03c-.03.15-.04.28-.04.4Z"/>
      <path class="cls-1" d="M140.75,93.67c-.23-.27-.57-.41-1.02-.41-.59,0-1.03.27-1.33.8-.29.54-.44,1.28-.44,2.23,0,.89.19,1.58.56,2.06.37.48.92.71,1.64.71.3,0,.6-.07.88-.21.28-.14.5-.3.63-.48l.18.15c-.07.14-.13.28-.18.43-.05.15-.1.29-.15.44-.22.17-.49.31-.82.42-.33.11-.72.17-1.17.17-.72,0-1.32-.1-1.81-.31-.49-.21-.89-.49-1.19-.84-.3-.35-.51-.75-.64-1.2-.13-.45-.19-.9-.19-1.35,0-.54.09-1.04.27-1.5.18-.46.44-.86.78-1.19.34-.33.75-.6,1.23-.79.48-.19,1.02-.29,1.61-.29s1.03.06,1.42.19c.39.13.76.29,1.11.5-.12.2-.23.44-.33.72-.1.29-.18.55-.23.81h-.35c-.08-.44-.23-.8-.46-1.07Z"/>
      <path class="cls-1" d="M143.89,93.54c.41-.33.86-.59,1.33-.77.48-.18.95-.27,1.42-.27.39,0,.75.04,1.08.13.33.09.61.23.85.42.24.19.43.44.56.74.13.3.2.67.2,1.11,0,.63,0,1.21-.02,1.75-.01.54-.02,1.07-.02,1.6,0,.24.02.42.05.55.03.13.09.23.15.3.07.07.16.11.27.13.11.02.24.03.39.03v.35c-.29.12-.53.21-.72.27-.2.06-.41.09-.63.09-.36,0-.66-.09-.88-.26-.23-.18-.4-.43-.52-.77-.23.31-.49.57-.79.75s-.68.28-1.13.28c-.37,0-.69-.05-.96-.15-.27-.1-.48-.24-.66-.42-.17-.18-.3-.39-.38-.62-.08-.23-.12-.46-.12-.7,0-.32.05-.6.15-.84.1-.24.25-.44.44-.6.19-.17.42-.31.69-.42.27-.11.56-.21.9-.29.41-.1.74-.18.98-.26.24-.07.42-.15.54-.22.12-.07.19-.16.23-.24.03-.09.05-.2.05-.32,0-.35-.12-.66-.38-.91-.25-.25-.6-.38-1.04-.38-.17,0-.34.02-.52.07-.18.04-.35.11-.51.18-.16.08-.31.16-.44.26-.13.09-.23.19-.3.3h-.1l-.19-.88ZM147.38,97.55c0-.42,0-.74,0-.97,0-.22,0-.42,0-.58-.21.12-.43.21-.66.29-.23.07-.44.17-.63.28-.19.11-.35.27-.47.46-.12.2-.18.48-.18.85s.08.64.23.83c.15.19.36.29.61.29.32,0,.59-.12.79-.37.2-.25.3-.61.3-1.09Z"/>
      <path class="cls-1" d="M153.89,94.53c.25-.68.56-1.18.93-1.5.36-.32.8-.48,1.3-.48.05,0,.09,0,.12,0,.03,0,.07,0,.11,0-.03.15-.05.3-.07.47-.01.17-.02.36-.02.59v.72c0,.09,0,.17.01.25l-.13.12c-.1-.06-.21-.11-.33-.15-.12-.04-.26-.06-.42-.06-.44,0-.79.15-1.05.43-.25.29-.38.63-.38,1.02v.59c0,.6,0,1.16.02,1.69.01.53.05,1.04.1,1.53-.13-.02-.29-.03-.48-.03h-1.25c-.19,0-.35,0-.49.03.05-.49.08-1,.1-1.53.01-.53.02-1.1.02-1.69v-.59c0-.6,0-1.16-.02-1.69-.01-.53-.05-1.05-.1-1.58.17.02.34.04.51.05.17.01.34.02.51.02s.34,0,.51-.02c.17-.01.34-.03.51-.05l-.04,1.8.03.03Z"/>
      <path class="cls-1" d="M160.21,94.53c.25-.68.56-1.18.93-1.5.36-.32.8-.48,1.3-.48.05,0,.09,0,.12,0,.03,0,.07,0,.11,0-.03.15-.05.3-.07.47-.01.17-.02.36-.02.59v.72c0,.09,0,.17.01.25l-.13.12c-.1-.06-.21-.11-.33-.15-.12-.04-.26-.06-.42-.06-.44,0-.79.15-1.05.43-.25.29-.38.63-.38,1.02v.59c0,.6,0,1.16.02,1.69.01.53.05,1.04.1,1.53-.13-.02-.29-.03-.48-.03h-1.25c-.19,0-.35,0-.49.03.05-.49.08-1,.1-1.53.01-.53.02-1.1.02-1.69v-.59c0-.6,0-1.16-.02-1.69-.01-.53-.05-1.05-.1-1.58.17.02.34.04.51.05.17.01.34.02.51.02s.34,0,.51-.02c.17-.01.34-.03.51-.05l-.04,1.8.03.03Z"/>
      <path class="cls-1" d="M164.51,89.92c0-.32.11-.6.34-.83.23-.23.5-.34.83-.34s.6.11.83.34c.23.23.34.5.34.83s-.11.6-.34.83c-.23.23-.5.34-.83.34s-.6-.11-.83-.34c-.23-.23-.34-.5-.34-.83ZM164.69,95.97c0-.6,0-1.16-.02-1.69-.01-.53-.05-1.05-.1-1.58.14.02.3.04.49.05.19.01.39.02.62.02.46,0,.83-.02,1.11-.07-.05.53-.08,1.06-.1,1.58-.01.53-.02,1.09-.02,1.69v.59c0,.6,0,1.16.02,1.69.01.53.05,1.04.1,1.53-.13-.02-.29-.03-.48-.03h-1.25c-.19,0-.35,0-.49.03.05-.49.08-1,.1-1.53.01-.53.02-1.1.02-1.69v-.59Z"/>
      <path class="cls-1" d="M170.98,96.27c0,.39.04.76.12,1.11.08.34.2.64.36.89.16.25.37.45.62.59.25.14.54.21.88.21.68,0,1.28-.22,1.81-.66l.18.13-.32.83c-.25.19-.54.34-.88.45-.34.11-.8.17-1.36.17-.48,0-.94-.07-1.37-.2-.43-.13-.81-.35-1.14-.66s-.59-.69-.78-1.16c-.19-.47-.29-1.02-.29-1.67s.09-1.19.26-1.66c.17-.47.41-.86.71-1.18.3-.31.66-.55,1.08-.71.42-.16.87-.24,1.36-.24.97,0,1.72.29,2.23.85.52.57.77,1.38.77,2.42v.31c0,.09,0,.15-.01.18h-4.23ZM173.25,95.6c-.02-.74-.11-1.33-.27-1.77-.16-.44-.43-.66-.82-.66-.22,0-.4.07-.54.22-.15.15-.27.34-.35.57-.09.23-.16.49-.2.78-.04.29-.07.58-.08.86h2.27Z"/>
      <path class="cls-1" d="M179.18,94.53c.25-.68.56-1.18.93-1.5.36-.32.8-.48,1.3-.48.05,0,.09,0,.12,0,.03,0,.07,0,.11,0-.03.15-.05.3-.07.47-.01.17-.02.36-.02.59v.72c0,.09,0,.17.01.25l-.13.12c-.1-.06-.21-.11-.33-.15-.12-.04-.26-.06-.42-.06-.44,0-.79.15-1.05.43-.25.29-.38.63-.38,1.02v.59c0,.6,0,1.16.02,1.69.01.53.05,1.04.1,1.53-.13-.02-.29-.03-.48-.03h-1.25c-.19,0-.35,0-.49.03.05-.49.08-1,.1-1.53.01-.53.02-1.1.02-1.69v-.59c0-.6,0-1.16-.02-1.69-.01-.53-.05-1.05-.1-1.58.17.02.34.04.51.05.17.01.34.02.51.02s.34,0,.51-.02c.17-.01.34-.03.51-.05l-.04,1.8.03.03Z"/>
      <path class="cls-1" d="M191.91,92.98c0,.06-.01.12-.01.19,0,.06,0,.12.01.18,0,.06.02.12.03.18l-1.38-.03v1.22c0,.96,0,1.85.03,2.65.02.81.05,1.61.09,2.4-.13-.02-.29-.03-.49-.03h-1.24c-.2,0-.36,0-.49.03.04-.8.07-1.6.09-2.4.02-.81.03-1.69.03-2.65v-1.21h-1.03c.03-.1.04-.23.04-.35,0-.12-.01-.25-.04-.4l1.03.04c.1-.6.22-1.15.37-1.67.15-.51.34-.95.58-1.33.24-.37.54-.67.91-.88.36-.21.81-.32,1.34-.32.17,0,.37.02.62.07-.03.16-.05.37-.05.64,0,.27,0,.53,0,.79v.49l-.18.06c-.2-.11-.42-.21-.68-.3-.25-.09-.5-.13-.74-.13-.29,0-.5.05-.66.14-.15.09-.23.26-.23.49s.07.52.2.87.3.7.49,1.05l1.38-.03c0,.08-.02.15-.03.21Z"/>
      <path class="cls-1" d="M195.41,94.53c.25-.68.56-1.18.93-1.5.36-.32.8-.48,1.3-.48.05,0,.09,0,.12,0,.03,0,.07,0,.11,0-.03.15-.05.3-.07.47-.01.17-.02.36-.02.59v.72c0,.09,0,.17.01.25l-.13.12c-.1-.06-.21-.11-.33-.15-.12-.04-.26-.06-.42-.06-.44,0-.79.15-1.05.43-.25.29-.38.63-.38,1.02v.59c0,.6,0,1.16.02,1.69.01.53.05,1.04.1,1.53-.13-.02-.29-.03-.48-.03h-1.25c-.19,0-.35,0-.49.03.05-.49.08-1,.1-1.53.01-.53.02-1.1.02-1.69v-.59c0-.6,0-1.16-.02-1.69-.01-.53-.05-1.05-.1-1.58.17.02.34.04.51.05.17.01.34.02.51.02s.34,0,.51-.02c.17-.01.34-.03.51-.05l-.04,1.8.03.03Z"/>
      <path class="cls-1" d="M199.32,96.44c0-.66.1-1.23.3-1.72s.47-.9.8-1.23c.33-.33.72-.58,1.16-.74s.89-.24,1.35-.24c1.15,0,2.04.32,2.67.97.63.65.94,1.53.94,2.64,0,.6-.09,1.14-.26,1.62-.18.48-.42.89-.74,1.23-.32.34-.7.59-1.14.76-.44.17-.93.25-1.46.25-.44,0-.88-.06-1.3-.18-.43-.12-.81-.32-1.16-.6-.34-.28-.62-.65-.83-1.1-.21-.45-.32-1.01-.32-1.66ZM204.36,95.9c0-.86-.11-1.54-.32-2.01-.22-.48-.57-.71-1.08-.71-.45,0-.81.27-1.07.8-.26.53-.39,1.36-.39,2.49,0,.41.02.8.07,1.15.05.35.13.66.24.92.11.26.26.46.44.61.18.15.41.22.69.22.94,0,1.41-1.15,1.41-3.46Z"/>
      <path class="cls-1" d="M210.44,93.81c.28-.41.6-.73.96-.96.37-.23.79-.34,1.26-.34.44,0,.82.12,1.14.36.32.24.57.59.74,1.04.29-.45.64-.8,1.03-1.04.39-.24.81-.36,1.25-.36.74,0,1.3.21,1.7.64.4.43.6,1.12.6,2.07,0,.5-.01.94-.03,1.33-.02.38-.03.77-.03,1.15,0,.31,0,.66.02,1.02.01.37.03.72.05,1.07-.13-.02-.29-.03-.49-.03h-1.24c-.2,0-.36,0-.49.03.07-.51.11-1.11.13-1.8.02-.69.03-1.49.03-2.38,0-.62-.1-1.07-.31-1.36-.21-.29-.5-.43-.87-.43-.24,0-.43.05-.58.16-.15.11-.27.25-.36.42-.09.17-.15.36-.18.55-.03.2-.04.38-.04.56v1.06c0,.6,0,1.16.02,1.69.01.53.05,1.04.1,1.53-.13-.02-.29-.03-.48-.03h-1.25c-.19,0-.35,0-.49.03.05-.49.08-1,.1-1.53.01-.53.02-1.1.02-1.69v-.9c0-.59-.07-1.05-.22-1.37s-.43-.49-.84-.49c-.44,0-.77.19-.97.58-.21.38-.31.91-.31,1.59v.59c0,.6,0,1.16.02,1.69.01.53.05,1.04.1,1.53-.13-.02-.29-.03-.48-.03h-1.25c-.19,0-.35,0-.49.03.05-.49.08-1,.1-1.53.01-.53.02-1.1.02-1.69v-.59c0-.6,0-1.16-.02-1.69-.02-.53-.05-1.05-.1-1.58.18.02.35.04.52.05.17.01.35.02.52.02s.35,0,.52-.02c.17-.01.36-.03.55-.05l-.06,1.11h.03Z"/>
      <path class="cls-1" d="M227.12,91.29c0-.24-.02-.41-.04-.52-.15,0-.33,0-.54.01-.22,0-.45.02-.69.04-.25.01-.5.03-.75.06-.26.02-.49.05-.71.08.02-.11.04-.22.05-.32.01-.11.02-.22.02-.32s0-.22-.02-.32c-.01-.11-.03-.22-.05-.32.33,0,.64.02.91.03.27,0,.54.02.83.02.28,0,.58,0,.91.01.33,0,.72,0,1.19,0s.86,0,1.19,0c.33,0,.63,0,.91-.01.27,0,.54-.01.8-.02.26,0,.54-.02.85-.03-.02.11-.04.22-.05.32-.01.11-.02.22-.02.32s0,.22.02.32c.01.11.03.22.05.32-.2-.03-.42-.06-.66-.08-.25-.02-.49-.04-.73-.06-.24-.01-.47-.03-.69-.04-.22,0-.4-.01-.54-.01,0,.05-.02.12-.02.21,0,.09,0,.19,0,.31v4.46c0,.82,0,1.54.03,2.17.02.63.05,1.26.09,1.86-.17-.02-.35-.03-.54-.03h-1.33c-.2,0-.38,0-.54.03.04-.61.07-1.23.09-1.86.02-.63.03-1.36.03-2.17v-3.68c0-.29,0-.55,0-.78Z"/>
      <path class="cls-1" d="M232.24,93.54c.41-.33.86-.59,1.33-.77.48-.18.95-.27,1.42-.27.39,0,.75.04,1.08.13.33.09.61.23.85.42.24.19.43.44.56.74.13.3.2.67.2,1.11,0,.63,0,1.21-.02,1.75-.01.54-.02,1.07-.02,1.6,0,.24.02.42.05.55.03.13.09.23.15.3.07.07.16.11.27.13.11.02.24.03.39.03v.35c-.29.12-.53.21-.72.27-.2.06-.41.09-.63.09-.36,0-.66-.09-.88-.26-.23-.18-.4-.43-.52-.77-.23.31-.49.57-.79.75-.3.19-.68.28-1.13.28-.37,0-.69-.05-.96-.15-.27-.1-.48-.24-.66-.42-.17-.18-.3-.39-.38-.62-.08-.23-.12-.46-.12-.7,0-.32.05-.6.16-.84.1-.24.25-.44.44-.6s.42-.31.69-.42c.26-.11.56-.21.9-.29.41-.1.74-.18.98-.26.24-.07.42-.15.54-.22.12-.07.19-.16.23-.24.03-.09.05-.2.05-.32,0-.35-.12-.66-.38-.91-.25-.25-.6-.38-1.04-.38-.17,0-.34.02-.52.07-.18.04-.35.11-.51.18-.16.08-.31.16-.44.26-.13.09-.23.19-.3.3h-.1l-.19-.88ZM235.73,97.55c0-.42,0-.74,0-.97,0-.22,0-.42,0-.58-.21.12-.42.21-.66.29-.23.07-.44.17-.63.28-.19.11-.35.27-.47.46-.12.2-.18.48-.18.85s.08.64.23.83c.15.19.36.29.61.29.32,0,.59-.12.79-.37.2-.25.3-.61.3-1.09Z"/>
      <path class="cls-1" d="M240.22,89.92c0-.32.11-.6.34-.83.23-.23.5-.34.83-.34s.6.11.83.34c.23.23.34.5.34.83s-.11.6-.34.83c-.23.23-.5.34-.83.34s-.6-.11-.83-.34c-.23-.23-.34-.5-.34-.83ZM240.4,95.97c0-.6,0-1.16-.02-1.69-.01-.53-.05-1.05-.1-1.58.14.02.3.04.49.05.19.01.39.02.62.02.46,0,.83-.02,1.11-.07-.05.53-.08,1.06-.1,1.58-.01.53-.02,1.09-.02,1.69v.59c0,.6,0,1.16.02,1.69.01.53.05,1.04.1,1.53-.13-.02-.29-.03-.48-.03h-1.25c-.19,0-.35,0-.49.03.05-.49.08-1,.1-1.53.01-.53.02-1.1.02-1.69v-.59Z"/>
      <path class="cls-1" d="M254.09,92.7c.22.05.41.07.57.07.1,0,.19,0,.29-.02.09-.01.2-.03.33-.05-.07.13-.16.34-.28.63-.12.29-.25.64-.39,1.05-.14.4-.29.84-.46,1.32-.16.48-.32.96-.48,1.44-.16.48-.31.95-.46,1.41-.15.46-.29.87-.41,1.24-.14-.02-.27-.03-.41-.03h-.82c-.14,0-.28,0-.41.03-.12-.37-.24-.77-.37-1.2-.13-.43-.26-.85-.38-1.27-.13-.42-.25-.83-.37-1.22-.12-.4-.23-.77-.32-1.11h-.03c-.25.83-.51,1.64-.76,2.43-.25.8-.49,1.59-.71,2.37-.14-.02-.28-.03-.42-.03h-.85c-.15,0-.29,0-.44.03-.11-.36-.23-.78-.38-1.26-.14-.48-.29-.96-.45-1.45-.16-.49-.31-.98-.47-1.46-.16-.48-.3-.92-.43-1.32-.13-.4-.25-.74-.35-1.02-.1-.29-.17-.48-.21-.58.22.02.42.04.6.05.18.01.37.02.55.02.18,0,.36,0,.54-.02.18-.01.36-.03.54-.05.24.86.48,1.73.74,2.63.26.9.5,1.72.72,2.47h.03c.28-.86.54-1.71.78-2.55.24-.83.47-1.68.71-2.55.14.02.27.04.41.05.14.01.28.02.41.02s.27,0,.41-.02c.14-.01.28-.03.41-.05.24.87.48,1.71.72,2.55.25.84.5,1.68.77,2.55h.03c.54-1.71,1.04-3.41,1.49-5.1Z"/>
      <path class="cls-1" d="M256.67,93.54c.41-.33.86-.59,1.33-.77.48-.18.95-.27,1.42-.27.39,0,.75.04,1.08.13.33.09.61.23.85.42.24.19.43.44.56.74.13.3.2.67.2,1.11,0,.63,0,1.21-.02,1.75-.01.54-.02,1.07-.02,1.6,0,.24.02.42.05.55.03.13.09.23.15.3.07.07.16.11.27.13.11.02.24.03.39.03v.35c-.29.12-.53.21-.72.27-.2.06-.41.09-.63.09-.36,0-.66-.09-.88-.26-.23-.18-.4-.43-.52-.77-.23.31-.49.57-.79.75s-.68.28-1.13.28c-.37,0-.69-.05-.96-.15-.27-.1-.48-.24-.66-.42-.17-.18-.3-.39-.38-.62-.08-.23-.12-.46-.12-.7,0-.32.05-.6.16-.84.1-.24.25-.44.44-.6.19-.17.42-.31.69-.42.26-.11.56-.21.9-.29.41-.1.74-.18.98-.26.24-.07.42-.15.54-.22.12-.07.19-.16.23-.24.03-.09.05-.2.05-.32,0-.35-.12-.66-.38-.91-.25-.25-.6-.38-1.04-.38-.17,0-.34.02-.52.07-.18.04-.35.11-.51.18-.16.08-.31.16-.44.26-.13.09-.23.19-.3.3h-.1l-.19-.88ZM260.16,97.55c0-.42,0-.74,0-.97,0-.22,0-.42,0-.58-.21.12-.42.21-.66.29-.23.07-.44.17-.63.28-.19.11-.35.27-.47.46-.12.2-.18.48-.18.85s.08.64.23.83c.15.19.36.29.61.29.32,0,.59-.12.79-.37.2-.25.3-.61.3-1.09Z"/>
      <path class="cls-1" d="M266.64,93.81c.28-.41.6-.73.97-.96.37-.23.79-.34,1.26-.34.74,0,1.3.21,1.7.64.4.43.6,1.12.6,2.07,0,.5-.01.94-.03,1.33-.02.38-.03.77-.03,1.15,0,.31,0,.66.02,1.02.01.37.03.72.05,1.07-.13-.02-.29-.03-.49-.03h-1.24c-.2,0-.36,0-.49.03.07-.51.11-1.11.13-1.8.02-.69.03-1.49.03-2.38,0-.62-.11-1.07-.32-1.36-.21-.29-.51-.43-.89-.43-.44,0-.77.19-.97.58-.21.38-.31.91-.31,1.59v.59c0,.6,0,1.16.02,1.69.01.53.05,1.04.1,1.53-.13-.02-.29-.03-.48-.03h-1.25c-.19,0-.35,0-.49.03.05-.49.08-1,.1-1.53.01-.53.02-1.1.02-1.69v-.59c0-.6,0-1.16-.02-1.69-.01-.53-.05-1.05-.1-1.58.18.02.35.04.52.05.17.01.35.02.52.02s.35,0,.52-.02c.17-.01.36-.03.55-.05l-.06,1.11h.03Z"/>
    </g>
    <g>
      <g>
        <g>
          <path class="cls-1" d="M306,52.57h-.01c2.17,2.2,3.61,5.17,3.84,8.48.52,7.35-5.02,13.72-12.36,14.23-3.45.24-6.69-.86-9.2-2.84h0c2.61,2.44,6.18,3.83,10.01,3.56,7.35-.51,12.88-6.88,12.37-14.22-.26-3.72-2.02-6.98-4.63-9.21Z"/>
          <path class="cls-1" d="M282.38,67.74c-.42.24-.52.59-.3,1.14.19.5.51.72.85.58.27-.1.31-.34.2-.94l-.05-.24c-.11-.59-.13-.84-.06-1.1.07-.29.24-.47.49-.57.6-.24,1.17.14,1.51.98.37.91.16,1.6-.55,1.9l-.18-.45c.51-.21.63-.68.36-1.35-.22-.54-.57-.78-.92-.64-.29.11-.36.39-.25,1l.04.26.04.23c.08.45.09.62.05.82-.07.24-.22.42-.47.52-.57.23-1.11-.11-1.41-.87-.33-.83-.15-1.44.48-1.73l.18.45Z"/>
          <path class="cls-1" d="M282,62.92l2.02-1.7v.63s-1.7,1.42-1.7,1.42l.55.61,1.2-.02v.49s-3.43.08-3.43.08v-.49s1.34-.03,1.34-.03h.36s-.11-.13-.11-.13l-.13-.12-1.52-1.64v-.66s1.4,1.57,1.4,1.57Z"/>
          <path class="cls-1" d="M283.53,57.6l1.32.46-.16.46-1.32-.46-2.38.72.2-.57,1.48-.41.18-.05c.07-.02.12-.03.25-.06-.12-.14-.14-.17-.27-.34l-.91-1.24.19-.54,1.42,2.02Z"/>
          <path class="cls-1" d="M285.85,51.27l-.73.89,2.17,1.78-.52.64-2.17-1.78-.72.88-.49-.4,1.97-2.41.5.4Z"/>
          <path class="cls-1" d="M290.49,48.02l-1.73,1.01.37.64,1.59-.93.3.5-1.59.93.43.73,1.77-1.04.32.55-2.49,1.45-1.73-2.97,2.44-1.43.32.55Z"/>
          <path class="cls-1" d="M297.14,49.36l-.89.06-.45-.74-1.39.22-.19.84-.85.22.9-3.75.85-.14,2.02,3.29ZM295.17,47.59c-.19-.32-.26-.46-.37-.7-.03.25-.06.43-.14.78l-.15.66,1-.16-.34-.58Z"/>
          <path class="cls-1" d="M302.66,50.46l-.72-.28.27-1.02c.03-.12.08-.28.14-.49.05-.22.1-.38.14-.51.05-.14.09-.28.13-.43l.08-.24c-.2.35-.28.47-.47.75-.08.13-.15.23-.21.31l-.98,1.37-.63-.16-.2-1.64c-.02-.09-.02-.2-.03-.37-.01-.21-.02-.38-.02-.49,0-.1,0-.23,0-.42l-.08.42c-.1.45-.15.64-.28,1.18l-.28,1.11-.76-.12.86-3.36,1.15.23.17,1.59c.04.37.06.68.03,1.13.13-.25.17-.34.32-.57.1-.15.19-.29.26-.4l.91-1.3,1.09.37-.89,3.35Z"/>
          <path class="cls-1" d="M296.09,57.08c-.42.37-1.25,1.16-2.04,1.92l-.91.87c-.73-.13-1.46-.2-2.21-.2-1.68,0-3.21.46-3.91,1.18-.26.27-.4.57-.39.88.01.82.94,1.22,1.23,1.33,1.48.55,2.73.39,4.05-.53.72-.51,1.59-1.32,2.27-1.98.53.12,1.13.28,1.78.47l.6.17c-.78.76-1.57,1.56-2.3,2.21l-.06.05c-1.02.9-1.76,1.55-2.83,1.79-.75.16-1.28,0-1.46-.1-.02,0-.04.03-.04.03.61.51,1.2.79,2.2.71.96-.09,2.06-.68,3.19-1.75l1.53-1.5,1.07-1.06s2.16.64,2.16.64c.02,0,.04,0,.04,0-.02,0-1.34,1.3-1.34,1.3l-1.15,1.14c-1.18,1.14-1.82,1.73-2.5,2.22-1.14.81-2.11,1.23-2.97,1.29-.45.03-1.09,0-1.62-.32-.03,0-.05.02-.05.02.58.5,1.29,1.09,2.52,1.06,1.39-.05,2.61-.71,4.53-2.46.87-.8,1.73-1.7,2.5-2.49l1.42-1.44c.94.21,1.77.29,2.7.28,1.34-.03,2.49-.67,2.51-1.41.01-.55-.43-.84-.7-1.01-.22-.15-.83-.49-1.65-.49-1.01,0-2.07.45-3.13,1.33l-.71.64s-.26-.08-.26-.08l-1.98-.56c.59-.54,1.08-1.01,1.52-1.41,1.09-.96,2.28-1.36,2.98-1.4.52-.03,1.39,0,1.77.27.01,0,.04-.04.04-.04-.97-.83-1.82-.94-2.51-.94s-1.79.22-3.13,1.26c-.55.43-1.26,1.14-2.01,1.9l-1-.31-.24-.07-1.05-.32s.6-.57.6-.57c.71-.69,1.38-1.35,1.9-1.79,1.9-1.6,3.09-1.81,3.92-1.81.91,0,1.64.19,2.15.56,0,0,.03-.04.03-.04-1.06-.96-1.83-1.27-3.15-1.29-1.16,0-2.55.64-3.91,1.83ZM288.63,62.78c-.62-.04-.91-.29-.91-.76,0-.06.05-1.57,3.49-1.74.39-.02.84-.04,1.5.04-.03,0-.39.33-.39.33l-.22.2c-.83.76-2.22,2.02-3.47,1.93ZM302.58,61.56c.99-.67,1.81-1.03,2.33-1.01.31,0,.67.1.67.47,0,.39-.37.71-1.09.97-.62.22-1.59.28-2.65.16.28-.26.54-.46.74-.6Z"/>
        </g>
        <path class="cls-1" d="M304.06,47.71c.13-.29.46-.42.75-.3.29.13.42.45.3.74-.12.29-.45.42-.74.3-.3-.12-.42-.45-.31-.73ZM305.01,48.16c.13-.24.03-.52-.19-.64-.23-.13-.52-.05-.66.18-.12.23-.03.52.19.65.23.12.52.05.65-.19ZM304.68,48.33l-.09-.05-.02-.34-.09-.05-.13.25-.08-.04.3-.54.23.13c.1.05.18.13.11.25-.05.11-.15.11-.25.06l.03.33ZM304.6,47.87c.07.04.18.11.22.03.03-.06-.04-.11-.09-.14l-.14-.08-.08.14.09.05Z"/>
      </g>
      <g>
        <g>
          <g>
            <path class="cls-7" d="M28.54,64.36c.5,2.15.42,5.69-1.02,7.46-2.07,2.55-4.05-.25-4.56-2.36-.55-2.28-.48-6.24,1.19-8.05.57-.72,1.5-1.18,2.34-.59,1.31.91,1.59,2.06,2.05,3.53"/>
            <g>
              <path class="cls-1" d="M26.61,67.14c.09.24-.14.64.27.72.27.22.89.14.84.56-.51-.03-.89-.5-1.48-.37-.31.06-.57.23-.87.33-.04-.05-.09-.08-.07-.14.3-.23.73-.23,1.01-.5l.02-.74c.14-.17.32-.02.28.15Z"/>
              <path class="cls-1" d="M27.09,68.8c.29.28.09.64.13,1-.02.78,0,1.44.19,2.19,0,.1-.04.21-.14.24-.1,0-.11-.09-.16-.14-.07-1.01-.17-2.02-.19-3.05-.07-.26-.46-.09-.63-.13-.1,0-.19.06-.26.13-.05,1.02,0,2.08-.17,3.13-.03.04-.08.05-.13.04l-.06-.08c.09-1.04.07-2.2.15-3.19.13-.16.36-.31.61-.29.21-.02.46.05.65.13Z"/>
              <path class="cls-1" d="M24.87,70.51c.03.25-.02.44,0,.64.03.24-.07.47-.1.71,0,.12-.1.22-.05.35h.13c.2-.1.17-.36.2-.56.06-.24.02-.42.05-.62.03-.46.03-.85.04-1.26.02-.12,0-.17,0-.26.08-.38,0-.83-.03-1.22-.14-.39-.58-.41-.9-.5-.09-.06-.13-.17-.13-.26.08-.17.29-.23.47-.25.06-.03.11-.03.17-.05.11-.04.17-.06.27-.07.08-.02.1-.09.1-.16-.15-.22-.32.03-.52.02-.23.1-.66.08-.71.45-.05.16.04.3.13.4.07.06.14.12.3.13.21.07.51.09.61.32,0,.11.02.36.02.43.01.09.01.17,0,.26.05.14,0,.3,0,.45-.06.12-.26.06-.37.07-.1-.05-.23-.01-.31-.09-.05-.12-.04-.29-.03-.42.21-.1.37-.07.58-.17,0,0,.02-.02.02-.04,0-.02.01-.05,0-.08-.01-.02-.03-.03-.04-.05-.13-.13-.16,0-.35.02-.04,0-.07,0-.11,0-.27.01-.08-.34-.18-.48-.04-.03-.08-.14-.16-.1-.18.13.02.36-.03.54.05.5.04,1.04-.06,1.57.06.23-.05.54-.04.79-.04.11-.01.23-.05.33.02.13-.11.3.01.39.05-.05.11-.07.15-.15.06-.35.13-.69.17-1.05,0-.06.05-.12.13-.1.17.02.21.12.37.12.23-.05.08-.22.03-.24-.19-.01-.17-.09-.34-.12-.05,0-.17.02-.15-.06,0-.12.02-.29.06-.39.15-.05.31,0,.48,0,.06,0,.2.02.22.09.03.18-.01.48-.04.67Z"/>
            </g>
            <g>
              <path class="cls-1" d="M27.82,64.42l-.25-.04c-.09-.08-.18-.11-.29-.18-.21-.16-.53-.25-.75-.48-.21,0-.3.21-.5.32-.02.02-.07.05-.1,0,.08-.17.24-.24.37-.36.08-.05.17-.09.24-.16.14.05.2.15.31.21.18.09.25.18.41.24.16.1.26.15.4.21.08.06.29.03.2.23l-.03.02Z"/>
              <path class="cls-1" d="M27.42,61.97c-.02.09-.13.14-.25.14-.15,0-.18.04-.3.11-.03.04-.07.1-.05.15,0,.11.18.14.3.18.04,0,.06.04.06.09-.05.03-.12,0-.18.01-.19.04-.39-.04-.57-.01-.08.02-.09,0-.2.04-.05,0-.08,0-.12.03-.12.04-.33,0-.34.13-.03.12-.05.26-.06.4-.01.06,0,.13-.04.2,0,.19.04.49.09.76,0,.06-.01.12,0,.17.11.12.31.04.39.06.16,0,.24.01.37,0,.12.02.24,0,.37.04.02-.01.06.03.08.04,0,.06-.07.06-.12.07-.09,0-.2,0-.33-.02-.28,0-.5.04-.83.03-.15,0-.23.01-.41,0-.03,0-.17.01-.21.01-.17,0-.19,0-.36-.03-.04-.03-.12.02-.14-.05-.03-.06.05-.06.08-.07.17,0,.32,0,.47,0,.2,0,.3-.01.43-.07.03-.06.02-.11.02-.15.01-.22-.05-.44-.03-.7.02-.14,0-.33.03-.46.01-.12.01-.42.1-.48l.4-.1c.15,0,.27-.02.43-.01.09-.01.18-.05.22-.14,0-.08-.05-.16-.13-.18-.1-.02-.09-.01-.22-.03-.07-.02-.15,0-.2-.09-.15-.19-.19-.44-.15-.69.02-.05.05-.1.11-.06.08.09.02.19,0,.29-.02.23.11.33.2.38.1.04.12.02.23.01.11-.09.05-.22.09-.33-.01-.18.03-.26.09-.42.07,0,.07.08.1.13v.08c.01.15-.03.32.05.5.05.07.05.05.13.05.11-.04.2-.1.22-.21.04-.12-.05-.35.12-.36.05,0,.04.01.05.04l-.02.5Z"/>
              <path class="cls-1" d="M27.41,63.53c-.05,0-.12-.01-.17-.05-.13-.16-.47-.23-.6-.34-.18-.07-.19,0-.31.07-.07.08-.16.12-.25.16-.06.06-.08.09-.15.1-.03-.01-.06-.04-.04-.06.08-.08.12-.12.19-.17.14-.08.29-.2.42-.29.13.07.43.16.57.22.11.12.29.16.39.29,0,.04-.03.06-.07.07Z"/>
              <path class="cls-1" d="M26.75,65.76c.05.19,0,.54-.08.61-.08.11-.16.11-.25.14-.25.03-.19.04-.43.07l-.39.04c-.25,0-.43.02-.7.02-.12.02-.26-.04-.38-.07-.03-.04-.09-.04-.09-.12,0-.07.15-.04.27-.04.24.02.47.04.7.03.25-.03.33-.02.64-.03.06,0,.2-.04.24-.06.22-.08.2-.08.26-.28.03-.19,0-.24-.21-.3-.24-.06-.42-.01-.58-.17-.11-.15.02-.34-.21-.45-.2.03-.33.04-.55.03-.11,0-.19.01-.31.01-.06-.02-.14-.01-.25-.01-.07,0-.08-.02-.16-.02-.03-.04-.11-.08-.05-.14.09-.04.16,0,.24-.03.2,0,.37,0,.58,0,.08,0,.16,0,.22.01.19-.02.36.01.58,0,.16,0,.29.02.42.01.12,0,.2.03.27.01.15-.03.26,0,.38,0,.18.02.25-.05.39,0,.05,0,.07.08.1.09-.03.03-.03.07-.07.08-.13.06-.25.02-.43.02-.13.02-.24,0-.41.03-.1-.02-.22-.03-.35-.04-.1,0-.17,0-.26.02,0,.11.02.21.11.29.09.07.3.06.43.09.12.04.28.06.33.19Z"/>
              <path class="cls-1" d="M25.63,61.46c-.02.19.03.55-.17.73-.17.05-.39-.03-.5.14-.1.14.02.28-.02.43.05.18.24.25.34.4.07.08.1.12.12.2-.04.02-.08.05-.12.02l-.04-.04-.07-.08c-.06-.04-.13-.15-.21-.17-.28,0-.43.26-.65.4-.07.06-.14.11-.21.16-.05.05-.09.08-.14.12-.09.08-.16.12-.27.15l-.02-.05s.12-.11.19-.15c.15-.17.31-.37.53-.48.15-.14.37-.24.44-.45,0-.07-.04-.14-.08-.18-.02-.12.05-.26-.09-.32-.17.02-.36-.1-.4-.13-.2-.24-.25-.57-.13-.87h.02c.13.03.09.17.09.28,0,.14.04.32.15.42.04.06.11.11.18.13.06,0,.13-.05.14-.11.08-.2-.05-.39.05-.6,0-.05-.01-.15.06-.18l.14.03c0,.14-.05.25-.04.39,0,.12-.03.27.07.34.04.05.11.07.17.04.17,0,.25-.16.28-.27,0-.17.04-.31.03-.42l.03-.08c.07.04.11.1.12.19Z"/>
              <path class="cls-1" d="M25.29,64.11c-.08,0-.07-.1-.13-.14-.09-.08-.17-.23-.32-.17-.06.04-.12.09-.2.14-.21.25-.44.36-.66.59-.05.01-.08-.02-.1-.06.06-.09.17-.16.25-.22.06-.04.11-.13.19-.18.05-.06.08-.1.13-.14.12-.13.23-.17.34-.29.05-.04.13-.08.18-.03.05.13.2.19.3.29.04.06.15.17.01.22Z"/>
            </g>
          </g>
          <g>
            <path class="cls-4" d="M49.3,34.71c.48,0,.76.2,1.05.36.58.31.95.56,1.72.57.41,0,.82.05,1.2.23,1.32.63,2.08,2.87,2.31,4.11.08.43.04.87,0,1.3-.04.43-.08.83,0,1.19.15.65.4.65.56.65h0c.16,0,.37-.05.58-.09.15-.03.31-.07.48-.09.38-.06.75-.08,1.1-.08.51,0,1,.06,1.46.17.5.12.98.17,1.48.21.37.03.75.07,1.16.14.4.07,1.76.32,2.52.65.43.18.77.49,1.1.78.28.25.55.49.89.67,1.91,1.02,2.47,2.22,1.9,4.15-.06.19-.11.4-.17.6-.19.65-.38,1.32-.59,1.94-.27.79-.69,1.14-1.18,1.54-.14.12-.29.25-.45.39-.46.42-.79.96-1.15,1.53-.5.78-1.01,1.6-1.88,2.11-.71.42-1.28.45-2,.48-.04,0-.09,0-.13,0-.32.16.02.84.26,1.25.13.22.27.47.39.81.08.24.09.49.1.73,0,.21,0,.41.07.56.02.07.13.16.22.24.17.15.39.35.48.65.22.74.15,2.31-.07,2.87-.06.15-.2.31-.37.51-.13.15-.28.32-.33.42-.07.13-.1.3-.13.48-.05.27-.11.57-.31.85-.76,1.08-2.37,1.65-3.68,2.11-.32.11-.62.22-.88.32-.36.14-.65.21-.91.21h0c-.37,0-.66-.14-.99-.29-.16-.08-.34-.16-.55-.24-.55-.21-1.06-.26-1.64-.31-.29-.02-.58-.05-.9-.09-.62-.09-1.01-.37-1.38-.63-.05-.03-.1-.07-.16-.11h-.06c-.56,0-.97-.12-1.24-.37-.61.87-1.53,1.54-2.87,2.08-.9.5-1.84.71-2.64.86-.23.07-.41.12-.57.17-.73.23-1.51.35-2.32.35h0c-.29,0-.59-.02-.88-.05-1.05,0-1.88-.24-2.54-.72-.71-.35-1.33-.8-1.85-1.34-.74-.51-1.56-1.12-1.96-1.94-.48-.97-.24-1.41.06-1.97.08-.15.17-.32.26-.51.02-.04.04-.1.07-.16.53-1.22.71-1.76.74-1.99-.61-.19-1.14-.74-1.63-1.68-.27-.52-.55-.97-.72-1.19-.11-.13-.26-.3-.43-.47-.12-.11-.27-.24-.31-.28-.56-.55-1.24-.88-1.9-1.21-.59-.3-1.21-.6-1.71-1.05-.34-.3-.63-.67-.9-1.18-.78-1.22-1.56-2.51-1.78-3.79-.22-1.26.09-1.99.49-2.76.12-.27.25-.53.41-.77.07-.14.13-.27.19-.39.09-.19.15-.35.2-.49.13-.34.22-.6.63-1.05.51-.55.92-.82,1.48-1.09.6-.3,1.29-.51,1.83-.56.04,0,.41-.06.55-.03.13.03.25.06.37.06.03,0,.05,0,.08,0,.13-.01.24-.07.37-.14.17-.09.37-.11.64-.11h.05c.59.03,2.67,1.09,3.26,1.11,0,0,.15,0,.22,0,.07-.02.15-.08.15-.08.27-.22.48-.51.64-.89.02-.03.03-.07.04-.1h0c.03-.07.05-.14.08-.21h0c.02-.08.05-.15.07-.22.12-.4.2-.83.28-1.25.02-.12.04-.24.06-.35l.02-.1.03-.13s.02-.12.02-.12c0-.03.01-.07.02-.1v-.02s.02-.06.02-.09v-.03s.03-.07.04-.1h0s.01-.07.02-.11v-.03s.03-.07.04-.1h0s.02-.07.03-.1v-.03s.03-.07.04-.1h0s.02-.07.04-.1v-.03s.04-.07.05-.1h0s.03-.07.04-.1v-.03s.04-.06.06-.09c.21-.42.35-.94.49-1.48.29-1.09.59-2.21,1.56-2.81.43-.26.87-.3,1.3-.34.37-.03.71-.07,1.03-.22.26-.14.49-.32.72-.52.33-.28.68-.57,1.15-.71.05-.02.1-.03.15-.04h.03s.09-.03.14-.04h.03s.08-.02.12-.03h.04s.09-.02.13-.03h.04s.07-.02.1-.02h.04s.08-.01.12-.02c.02,0,.06,0,.06,0,.03,0,.06,0,.09,0,.02,0,.05,0,.08,0,.03,0,.05,0,.08,0h.29c.15,0,.32.01.5.03h.01c.07,0,.13.01.19.02h.03c.06,0,.13.02.19.02.16.01.3.02.44.02.42,0,.75-.07,1.2-.16.38-.08.83-.16,1.09-.16Z"/>
            <path class="cls-6" d="M36.1,46.14c.12-.02.2-.09.2-.09,1.37-1.09,1.05-3.31,1.77-4.74.65-1.3.61-3.37,1.96-4.19.72-.44,1.56-.16,2.31-.55.68-.35,1.09-.99,1.84-1.21.84-.26,1.59-.2,2.37-.13.86.08,1.3-.07,2.18-.23.99-.08,1.31.08,2.14.54.78.43,1.6.19,2.32.53,1.22.58,1.95,2.72,2.18,3.95.15.81-.17,1.72,0,2.5.27,1.22.98.79,1.89.65.86-.13,1.68-.11,2.47.09.89.22,1.72.2,2.66.36.67.12,1.81.36,2.47.64.75.33,1.2,1.04,1.97,1.44,1.66.89,2.35,1.91,1.78,3.86-.25.85-.49,1.72-.76,2.52-.33.95-.88,1.2-1.57,1.83-1.14,1.05-1.57,2.76-2.98,3.6-.76.45-2.1.4-2.2.47-.65.44.25,1.38.61,2.38.15.4.02.91.17,1.31.11.29.58.46.7.88.2.68.12,2.19-.07,2.68-.08.21-.56.63-.7.9-.19.38-.14.88-.42,1.29-.89,1.28-3.16,1.83-4.44,2.34-1.09.43-1.31.05-2.28-.32-.86-.33-1.63-.27-2.6-.41-.99-.14-1.33-.8-2.25-1.11-1.24-.42-1.55.36-2.29,1.11-1.42,1.46-3.05,1.73-4.87,2-1.75.27-3.89.73-5.32-.51-1.06-.92-2.9-1.74-3.55-3.04-.54-1.1-.07-1.34.32-2.25.18-.43.9-2.02.83-2.41-.08-.45-1.35-1.7-1.7-2.14-.4-.5-.97-1.03-1.44-1.49-1.31-1.28-3.24-1.43-4.18-2.9-.82-1.27-1.83-2.76-2.08-4.21-.29-1.68.39-2.31,1.07-3.77.31-.66.25-.88.79-1.47.47-.51.85-.76,1.4-1.03.5-.25,1.17-.48,1.74-.54.34-.03.62.06,1,.03.4-.04.61-.27,1.03-.25.82.04,2.66,1.1,3.29,1.11,0,0,.17,0,.26-.02Z"/>
            <path class="cls-11" d="M50.87,35.54c-.81-.37-1.02-.63-1.78-.6-.11.01-.23.03-.37.05-.88.17-1.31.3-2.17.22-.14-.01-.64-.04-.84-.04-.5-.02-1,.03-1.54.19-.75.23-1.16.87-1.84,1.21-.75.39-1.59.11-2.31.55-1.34.82-1.31,2.89-1.96,4.19-.53,1.07-.5,2.58-1.01,3.73.04.42.11.83.23,1.22.2.65,1.45.6,1.22,1.84l.05.2c1,3.32,6.94,2.5,8.63,1.2.86-.66,2.51-1.2,3.17-2.03.58-.73,2.45-1.33,2.93-2.11.73-1.22,1.69-2.88,1.6-4-.27-3.47-2.38-5.07-4-5.82Z"/>
            <path class="cls-10" d="M51.7,36.04c-.69-.29-1.61-.72-2.01-.67-.12.01-.25.03-.39.06-.91.17-1.37.33-2.26.24-.14-.01-.7-.04-.87-.06-.51-.02-1.03.02-1.59.19-.78.24-1.21.89-1.91,1.25-.78.4-1.65.12-2.4.56-.75.45-1.63,2.08-1.91,4.12-.09.68.38,1.32.29,2.1-.4,3.33.55,2.57,1.26,3.92,1.32,2.51,1.19,3.28.53,3.14.73.89,1.41,2.01.86,2.73,2.27.49,5.14-.13,6.25-.98.9-.69,2.14-1.37,2.83-2.24.6-.76,1.71-3.18,2.2-3.99.77-1.26,1.61-1.52,2.21-3.87,1.01-3.93-.98-5.61-3.1-6.5Z"/>
            <path class="cls-12" d="M38.62,60.01c-1.29,1.41-2.69,2.65-3.47,3.75-.86,1.2-1.01,3.09-.46,4.19,1.53,3.06,5.39,4.02,8.32,3.09,2.85-.64,6.34-1.45,6.74-5.25.2-1.88.72-3.81.1-5.55-.51-1.4-.59-4.68-3.53-4-1.4.37-3.91.03-5.13.87-1.24.85-2.39,2.09-2.81,3.48"/>
            <path class="cls-9" d="M39.04,52.42c-.7-.69-.17-1.56-.47-2.39-.27-.74-.72-1.64-1.11-2.46-.9-1.88-2-.15-2.74-.35-.78-.2-1.9-.46-2.64-.75-3.17-1.24-6.51,1.71-6.59,5.12-.03,1.38,1.08,2.86,1.68,4.04.87,1.71,1.67,1.78,3.22,2.61,1.29.7,2.11,1.52,2.85,2.92,1.9,3.65,3.96.25,5.61-1.09,1.22-.99,1.97-3.2,1.61-4.79-.24-1.05-1.1-2.59-1.98-3.24"/>
            <path class="cls-13" d="M61.49,43.87c-.11,0-.24,0-.38,0-.91.06-1.38.15-2.25-.05-.14-.03-.28-.07-.42-.1-.13-.01-.27-.04-.42-.08-.5-.08-1.01-.11-1.58-.01-.79.14-1.62.71-2.18,1.1-.63.49-1.01,1.73-1.64,2.11-1.45.68-1.5,1.03-2.29,2.29-.65,1.04-1.47,2.5-2.12,3.62,0,.44.03.88.11,1.3.13.71.95,1.84.92,2.46l.03-.25c.66,3.61,8.01,4.7,6.65,2.94-3.49-4.54,1.94-6.76,2.63-5.91,4.27,5.31,5.99,2.19,6.4,1.64.88-1.19,1.56-2.4,1.78-3.56,1.36-7.54-2.86-6.48-5.24-7.51Z"/>
            <path class="cls-3" d="M60,56.11c-.43-.4-.95-1.2-1.3-1.67-.52-.68-.18-1.6-.95-1.99-.58-.3-.89.4-2.19-.38-4.05,2.87-.62-1.46-.87-2.52-.49-1.4-1.59-1.8-.44-4.81,0-.03-.03-.04-.05-.01-.22.24-.45.47-.57.66-.31.52-.46.8-1.06,1.13-.41.23-.72.33-1.01.67-.29.33-.5.68-.75,1.03-.49.68-1.42.85-2.26.86-.2,0-.4,0-.59-.01-1.16.75-2.38,1.19-3.49.91-.69-.17-1.55-1.39-2.19-1.29-.65.1.37.43-.14.99-.97,1.04-2.27-1.1-2.36-1.08-.14.04.02.4.01.57-.03.36-.35.58-.39.95-.04.36.01.56.06.75.05.22.16.5.15.88-.02.64-.01.43-.04,1.07-.05,1.26-.58,1.79-.89,3.04-.33,1.36,1.08,2.08-.62,4.63-.57.85-3.11,2.03-2.95,3.03.72-.12,1.12-.92,1.63-1.44,1.22-1.23,4.55-2.52,6.51-2.61,2.04-.1.09,2.17.66,2.61.55.43-.56,1.62.07,1.32.65-.32,1.54-3.28,1.9-4.01.24-.48,3.47-7.97,3.55,3.33.01,1.08.65,1.6.35,2.63-.14.49-2.04,3.21,1.08,2.9.42-2.36-1.37-4.03-.44-5.18.49-.61,2.21-.72,2.18-1.52-.11-2.83,2.07-.98,2.57-2.01.83-1.7.49-.43.42-1.17-.08-.78.62-.78.29-1.52.75.18.95-.56,1.56-.72.42-.11,1.26-.07,1.69,0,1.02.16,1.53,1.83,1.74,1.73.24-.36-.34-1.25-.87-1.74Z"/>
            <path class="cls-2" d="M41.39,59.17c-.42-.31,0-1.38.5-1.92.5-.54,1.28-1.41,1.08-1.51-.2-.1-1.08.1-1.34,0-.27-.1,1.51-.81,1.71-.91.2-.1-1.28-.5-1.81-.57-.54-.07-1.65.1-1.55-.14.1-.23.74-.54.87-.67.13-.13-.84-.64-.91-.88-.07-.23.2-.47,1.21-.23,1.01.23,1.85.13,2.29.23.44.1.67.2.84.3.17.1.29-.26.43-.21.14.06.46.26.48.06.03-.21-.14-.58-.42-.83-.28-.25-.72-.75-.78-.93-.06-.18-.28-.61-.03-.71.25-.1.47-.01.61-.07.14-.06.39-.43.75-.28.36.15.53.29.64.38.11.08.32.14.48.08.17-.06.44-.39.76-.19.32.19.89.65,1.4.54.51-.11.8-.36.96-.66.15-.3.58-1.26.76-1.44.18-.18.64-.54.57-.4-.07.14-.53,1.15-.5,1.66.03.51-.08.64.08.76.17.12.37.08.55,0,.18-.08.47-.29.51-.16.04.12-1.03.84-1.34,1.15-.32.3-.62.93-.47,1.18.15.25.76.14,1.07.14s.96.04.87.19c-.08.15-1.18.89-1.18,1.01s.66.36,1.04.37c.37.01,1.26.15,1.61.24.35.08.64.07.71.26.07.19.18.36.06.37-.12.01-.87-.1-1.12-.19-.25-.1-1.54-.39-1.83-.37-.29.01-1.15-.01-1.3.28-.15.29.48.49.62.61.14.13.65.66.33.72-.32.06-.58-.18-.71-.22-.13-.04-.62-.39-.75-.48-.12-.1-.66-.68-.93-.65-.26.03-.8.12-1.11.32-.31.19-.64.57-.82.78-.18.21-.91.68-1.22.93-.31.25-1.98,1.58-2.29,1.8-.3.22-1.06.53-1.41.28Z"/>
            <path class="cls-5" d="M46.23,49.24c-.12-.18-.08-.62.03-.89.09-.23.8-1.55,1.55-1.3.3.1.5.23.59.55.15.53.17,1.33-.24,1.74-.58.59-1.59.39-1.92-.1Z"/>
            <path class="cls-5" d="M42.74,50.84c.21-.04.48-.3.53-.5.06-.28.61-.3.64-.41.03-.11-.57-1.56-.88-1.69-.39-.16-.5.1-.85.07-.27-.02-.5-.13-.67.16-.25.45-.71,1.03-.34,1.51.37.49.9.98,1.56.86"/>
            <path class="cls-5" d="M51.06,52c-.1.11-.32.19-.45.05.44-.53.81-.72,1.35-1.13.19-.21.03-1.09.14-1.38.1-.29,1-.91,1.4-.7.21.11.4.17.52.35.22.33.21.89.21,1.15.01.36-.18.62-.29.96-.1.33-.7.28-.97.31-.36.03-.7-.24-1.04-.03-.19.11-.71.26-.86.43Z"/>
            <path class="cls-5" d="M47.03,53.24c.12-.22,0-.54.03-.77.03-.19.09-.47-.11-.59-.09.44-.17.93,0,1.36.02.05.08,0,.08,0Z"/>
            <path class="cls-5" d="M38.83,54.42c.47-.68.99-.91,1.61-1.03.01-.08-.17-.14-.23-.15-.42-.08-.75-.34-1.01-.66-.52-.63-.83-1.14-1.69-.88-.91.28-.95,1.78-.69,2.51.3.87,1.49.98,2.02.21Z"/>
            <path class="cls-5" d="M56.87,53.29c.94-.35,1.7.11,1.24.89-.24.4-.16.86-.43,1.26-.21.32-.73.5-1.12.36-.36-.13-.85-.35-1.1-.61-.29-.3-.37-.54-.85-.66-.76-.2-1.6,0-2.35-.29.85-.43,1.82.04,2.72-.02.39-.03.66-.71,1.88-.93"/>
            <path class="cls-5" d="M52.25,54.23c-.24-.12-.5-.13-.67-.02.16.04.52.09.67.02Z"/>
            <path class="cls-5" d="M40.71,56.95c-.85-1.02-2.66.92-2.79,1.05-.13.13-.47.38-.51.52-.11.4.83.94,1.12,1.11.38.22.71.79,1.24.39.51-.39.56-.76.7-1.36.12-.53.34-1.08.75-1.46.41-.38.92-.66,1.25-1.12-.82-.07-1.16.61-1.76.87"/>
            <path class="cls-5" d="M53.46,52.54c-.16-.65-1.32.03-1.61-.03.33.08.81.06,1.24.13.13.03.39.04.36-.1Z"/>
            <path class="cls-5" d="M48.49,56.3c.33.18.44.63.77.83.29.17.7.38.98.6.15.12.32.66.07.79-.37.18-.51-.54-.7.06-.19.6-.92.89-1.06,1.53-.1.45-.41,1.06-.12,1.49.08.14.23.2.38.22.34.04.39.02.69.21.37.23.67.34,1.07.15.39-.18.7-.45.79-.89-.05-.47-.22-.94-.2-1.42.01-.48.23-.76-.02-1.24-.2-.38-.37-.58-.71-.84-.26-.19-.35-.56-.54-.83-.31-.43-.87-.94-1.06-1.15-.2-.21-.41-.35-.74-.35-.33,0-.81.36-1.04.65-.31.37-.73.58-1.05.88-.35.33-.27.84-.45,1.26-.15.36-.43.77-.47,1.16.24-.13.4-.5.55-.72.11-.16.21-.33.34-.47.13-.16.33-.16.47-.3.42-.4.46-.9.73-1.35.23-.38,1-.45,1.34-.28"/>
            <path class="cls-5" d="M56.31,60.35c-.03-.25-.11-.51-.05-.77.08-.32-.03-.58-.19-.89-.18-.35-.72-1.16-1.21-.94-.17.08-.33.28-.54.17-.25-.14-.32-.36-.63-.46-.28-.1-.57-.14-.85-.21-.19-.05-.35-.1-.59-.12.18.39.84.64,1.15.9.69.57.36,1.23.32,1.96-.01.23-.09.54.07.76.15.22.73.26.87.35.08.05.78.29,1.09.12.3-.17.59-.68.57-.87"/>
            <g>
              <path class="cls-5" d="M48.59,67.06c.21-.04.49.18.95.35.46.18.82.28,1.19.3.37.02,1.05.44,1.18.68.12.25.19.91-.02,1.3-.21.39-.58.89-.39,1.74.19.84.54,1.16-.07,1.11-.61-.05-1.07-.26-1.42-.37-.35-.11-.86-.16-1.25-.63-.39-.47-.63-.39-1.26-.77-.63-.38-1.02-1.19-.7-1.54.32-.35,1.28-1.21,1.4-1.4.12-.19.3-.74.39-.76Z"/>
              <path class="cls-5" d="M61.12,62.1c0-.19.46-.5.48-.62s.04-.87-.04-1.19c-.08-.32-.14-.66.1-.82.24-.15.89-.36,1.27-.19.39.17.71.32,1.07.46.36.14,1.3.63,1.47.97.17.35.39.72.14,1.09-.25.38-.25.64-.44.8-.18.15-.66.51-.93.85-.26.33-.46,1.04-.78,1.19-.32.15-.95.35-1.14.13-.18-.22-.28-.71-.24-.9.04-.19.48-.56.37-.87-.11-.32-.43-.36-.78-.49-.35-.12-.57-.21-.57-.4Z"/>
              <path class="cls-5" d="M31.64,64.92c-.17-.18-.34-.34-.25-.52.08-.18.3-.58.34-.89.04-.31.03-1.04,0-1.26-.03-.21.11-.54.17-.73.06-.2-.01-.57.35-.69.37-.13.75-.09,1.07-.03.32.06.97.23,1.16.58.18.35.3.76.51.9.21.14.86.42.88.52.01.1-.13.23-.35.62-.23.39-.21,1.41-.24,1.61-.03.2-.01.95-.27,1.12-.25.17-.66,0-1.03-.18-.37-.18-.89-.39-1.1-.58-.19-.17-.18-.39-.31-.45-.13-.06-.75.17-.92-.01Z"/>
            </g>
            <path class="cls-5" d="M45.37,61.24c.15.15.19.65.19.79-.02.29-.04.69-.19.88-.15.19-.65.46-.81.52-.15.05-.61.21-.87-.01-.11-.1-.5-.36-.62-.6-.12-.24-.26-1.15.21-1.67.22-.25.62-.27.88-.48.23-.19.44-.41.69-.58.02.25-.18.56,0,.79.12.16.38.22.52.37Z"/>
            <path class="cls-5" d="M51.14,55.5c-.32-.04-.46-.15-.81-.14.2.3.72.25,1.04.37.15.05.25.16.36.22.35.2,1,.44,1.09.55.09.11.72.38,1.07.25.15-.05.4-.11.34-.3-.27-.56-1.06-.36-1.48-.63-.14-.08-.14-.19-.34-.23-.2-.04-.44-.01-.59-.07-.15-.06-.45,0-.68-.02Z"/>
            <path class="cls-5" d="M47.35,50.47s0,.09-.05.33c-.05.24-.16.75.06,1.17,0,0,.12-.14.09-.51-.03-.37.03-.41.03-.54,0-.12-.13-.45-.13-.45Z"/>
            <g>
              <path class="cls-5" d="M45.93,54.86c.14.17-.05.45-.17.6-.13.17-.34.26-.75.7-.41.44-.85.94-.97,1.09-.11.15-.38.55-.48.47-.1-.09.2-.65.28-.78.08-.13.52-.73.67-.82.15-.09.93-.74.91-.83-.03-.09-.29-.06-.42-.04-.13.03-.72.24-.88.28-.16.04-.36-.06-.13-.26.24-.2.3-.24.43-.27.13-.02.48-.04.55-.11.08-.08.09-.32.01-.37-.08-.05-.19-.01-.29-.01s-1.29-.21-1.5-.25c-.2-.04-1.34-.34-1.55-.38-.2-.04-.23-.18.1-.18s.92.11,1.13.11.47-.04.69-.03c.23.01.87.13,1.06.06.19-.06.45-.18.49-.3.04-.12.06-.28-.05-.39-.11-.11-.62-.45-.75-.72-.14-.26-.28-.53-.41-.6-.14-.08-.38-.11-.48-.25-.1-.14-.15-.52.02-.44.18.08.65.33.73.43.08.1.2.35.35.53.15.17.48.48.63.57.15.09.45.31.54.5.48.03.58,0,.89.01.31.01.8.06.9.11.1.05.44.21.55.1.11-.11.43-.78.55-.94.13-.16.7-.88.82-1.07.11-.19.79-.73.85-.69.06.04.2.12-.05.35-.25.23-.97.93-1.07,1.11-.1.18-.5.83-.58.97-.08.14-.29.29-.23.38.06.09.48.2.57.29.09.09.35.57.16.69-.19.12-.42.01-.58-.16-.16-.18-.25-.36-.43-.48-.18-.11-.39-.18-.72-.29-.33-.11-1.06-.14-1.26-.09-.2.05-.6.19-.62.41-.01.23.06.51.44.97Z"/>
              <path class="cls-5" d="M46.49,52.82c-.11,0-.49-.34-.62-.59-.13-.25-.39-.73-.48-.84-.09-.11-.14-.36-.23-.44-.09-.08-.49-.55-.38-.62.11-.06.53.35.58.47.05.11.45.66.55.8.1.14.4.62.48.75.08.14.2.46.09.46Z"/>
            </g>
          </g>
        </g>
        <g>
          <path class="cls-1" d="M86.23,56.03l-.14.09c-1.17-.7-3.02-1.24-4.77-1.24-3.55,0-6.33,2.5-6.33,6.26,0,3.95,3.25,6.17,6.57,6.17,2.17,0,4.3-.77,5.42-1.87l.16.12-.68,3.23c-1.19.7-3.34,1.07-5.02,1.07-5.52,0-10.12-3.32-10.12-8.74,0-4.96,3.79-8.88,10.03-8.88,2.08,0,4.07.49,5.52,1.12l-.63,2.67ZM105.16,69.46c-.07-.93-.12-1.92-.12-2.83v-11.17c0-.84.05-1.91.12-2.83h-3.65c.07.91.12,1.99.12,2.83v4.11h-8.72v-4.11c0-.84.05-1.91.12-2.83h-3.65c.07.91.12,1.99.12,2.83v11.17c0,.91-.05,1.89-.12,2.83h3.65c-.07-.93-.12-1.92-.12-2.83v-4.51h8.72v4.51c0,.91-.05,1.89-.12,2.83h3.65ZM113.01,69.46c-.07-.93-.12-1.92-.12-2.83v-11.17c0-.84.05-1.91.12-2.83h-3.65c.07.91.12,1.99.12,2.83v11.17c0,.91-.05,1.89-.12,2.83h3.65ZM132.73,52.64c-.07.87-.12,2.01-.12,2.88v14.14h-.54l-11.8-12.06v9.04c0,.91.05,1.89.12,2.83h-3.11c.07-.93.12-1.92.12-2.83v-11.99l-1.78-1.8v-.21h4.32l9.79,10.07v-7.25c0-.91-.05-1.89-.12-2.83h3.11ZM153.93,69.46c-.72-1.08-1.36-2.22-1.89-3.2l-7.92-14.49h-.79l-9.42,17.69h3.76c.3-.87.65-1.71.93-2.27l1.03-2.1h8.09l1.1,2.17c.33.65.72,1.42.91,2.2h4.21ZM143.53,56.91h.12l2.92,5.87h-5.82l2.78-5.87ZM179.52,69.46c-.72-1.08-1.36-2.22-1.89-3.2l-7.92-14.49h-.8l-9.42,17.69h3.76c.3-.87.65-1.71.93-2.27l1.03-2.1h8.09l1.1,2.17c.33.65.72,1.42.91,2.2h4.21ZM169.12,56.91h.12l2.92,5.87h-5.82l2.78-5.87ZM184.38,69.46c-.07-.93-.12-1.92-.12-2.83v-11.17c0-.84.05-1.91.12-2.83h-3.65c.07.91.12,1.99.12,2.83v11.17c0,.91-.05,1.89-.12,2.83h3.65ZM188.66,69.46c.07-.93.12-1.92.12-2.83v-11.17c0-.84-.05-1.91-.12-2.83h6.57c3.74,0,6.22,1.94,6.22,4.56s-1.96,4.18-4.32,4.63l4.25,4.77c.77.89,1.64,1.8,2.69,2.66v.21h-4.42l-7.45-8.74v5.91c0,.91.05,1.89.12,2.83h-3.65ZM192.19,60.3h1.96c2.27,0,3.65-.91,3.65-2.92,0-1.75-1.33-2.62-3.67-2.62h-1.94v5.54ZM215.53,69.46l.7-3.01-.19-.09c-.89.49-2.06.79-3.32.79h-4.04v-11.68c0-.84.05-1.91.12-2.83h-3.65c.07.91.12,1.99.12,2.83v11.17c0,.91-.05,1.89-.12,2.83h10.38ZM221.82,69.46c-.07-.93-.12-1.92-.12-2.83v-11.17c0-.84.05-1.91.12-2.83h-3.65c.07.91.12,1.99.12,2.83v11.17c0,.91-.05,1.89-.12,2.83h3.65ZM241.52,52.64c-.07.87-.12,2.01-.12,2.88v14.14h-.54l-11.8-12.06v9.04c0,.91.05,1.89.12,2.83h-3.11c.07-.93.12-1.92.12-2.83v-11.99l-1.78-1.8v-.21h4.32l9.79,10.07v-7.25c0-.91-.05-1.89-.12-2.83h3.11ZM256.83,69.46l.72-3.01-.19-.09c-.89.51-2.03.79-3.34.79h-5.52v-5.42h4.39c1.07,0,2.03.09,2.97.33l.61-2.55h-7.97v-4.58h4.72c1.22,0,2.34.12,3.37.42l.65-2.71h-12.27c.07.91.12,1.99.12,2.83v11.17c0,.91-.05,1.89-.12,2.83h11.85ZM270.94,56.35c-1.12-1.01-3.13-1.68-4.88-1.68-2.34,0-3.58.77-3.58,1.89,0,1.28,1.64,1.94,4.63,3.22,4.32,1.85,5.35,2.95,5.35,5.19,0,2.87-2.83,4.88-7.06,4.88-2.38,0-4.86-.86-6.33-1.82l.63-3.06h.21c1.12,1.45,3.48,2.41,5.52,2.41,2.2,0,3.74-.82,3.74-2.13,0-1.24-1.24-1.78-4.6-3.18-3.9-1.61-5.42-2.9-5.42-5.38s2.22-4.46,6.94-4.46c1.87,0,4.3.61,5.68,1.38l-.63,2.73h-.19Z"/>
          <g>
            <path class="cls-1" d="M135.35,26.5c-1.14.91-3.01.8-4.46.63l.18-2.87c-.69-.75-1.15-1.44-2.24-1.61-1.44,1.09-.12,3.39-.69,5.06-.92.34-2.21.58-3.24.58-.58-.12-1.04-1.04-1.61-.41-.46,3.11,0,6.61,2.06,8.96.98.23,2.1-.69,3.02-.58.17,2.82-.26,5.63.26,8.33l.34.34c2.02-2.59,1.3-6.03,1.92-9.13,1.5-.06,3.14-.75,4.68-.23l1.44-1.43c.64-.98-.57-1.55-.8-2.36.8-1.09,2.12-1.78,2.18-3.22-.8-.92-1.84-1.84-3.04-2.07ZM126.22,34.14l-.23-.35c.4-1.55-1.09-4.06,1.75-4.59h.46l.12,4.65c-.46.29-1.53.29-2.1.29ZM130.73,33.05l.17-4.48c.98-.35,2.76-.05,3.8-.05-.86,1.66-.91,4.34-3.96,4.53Z"/>
            <path class="cls-1" d="M164.82,35.06c-1.21.45-2.58.51-3.91.45v-.11c.29-1.9,2.07-1.59,2.99-2.44.23-.4.52-.6,0-.95-1.32-.23-1.26-1.44-2.69-1.55-.58.11-.4.81-.86,1.03-.4.12-2.35.17-2.69-.05-.29-2.18,2.85-.44,3.72-1.71.34-.63-.29-.93-.63-1.16l-5.8.75-.12-.12c.52-.75,1.77-1.45,2.69-1.28l-.34.65c.98,0,1.56-.46,2.3-1.04,1.84-.58,4.65,1.09,5.05-1.44-.34-1.38-1.92-.57-2.67-.69.18-.35.49-.68.49-1.15-.4-.86-.7-.99-1.45-1.16-1.21.4-1.61,1.84-2.36,2.76l-3.25.25-.22-1.67c-.57-.92-1.1-.87-1.97-1.11-1.2.69-.17,2.25-.11,3.17-.81.4-2.02.23-2.59.97.06.57.4,1.1.75,1.44.75.52,1.66-.05,2.41-.23,1.27.98-.92.69-.8,1.55.34,1.15,1.78.37,2.64.42.11.34.17,1.01-.05,1.35-2.62.88-2.42-1.55-4.26-.92-.69.4-.17,1.15-.23,1.61l-1.21.12c-.4.05-.46.51-.46.86.4.69,1.2.82,2.07.71.28.23.34,1.64.23,1.92-1.44.35-2.99.4-4.43.75-.12.52.18.63.35,1.09.17.46.69.69,1.32.52,2.12-.51,4.25-1.26,6.55-1.38l.17.23c-.05.28.18.91-.05,1.09l-3.97.69c-.28.28-.06.39.06.63.64,2.01,2.64.26,3.9.89.17,1.73.11,3.53.69,5.08,2.01-1.04,1.17-3.59,1.62-5.43,1.38-.28,3.03.23,4.34.35.45-.4,1.21-.43,1.09-1.18-.69-2.12-3.63-.92-5.29-1.15l-.23-.23c-.05-.35-.2-.98.14-1.21,2.24-.22,5.16,0,7.23.35l.86-.57c.35-.29.57-.41.46-.87-.46-.4-.91-.86-1.49-.91ZM155.34,35.8l-2.01.13c.29-.52-.11-2.73.98-2.49l1.02.04v2.33ZM157.77,35.51c0-.45-.19-2.94,2.06-2.39,0,.58-1.49,2.16-2.06,2.39Z"/>
            <path class="cls-1" d="M220.31,26.11c-1.15,1.09-3.12.9-4.64.73.18-1.03-.42-1.76-.9-2.54-.85-.36-1.7-.91-2.3-.06l.6,2.72c-.48.42-1.23.42-1.77.6-1.09.12-3.02.91-3.02-1.03-.49-.18-.79-.9-1.34-.42-.18,1.81-1.45,3.26-1.15,5.14.3.55.49,1.45,1.34,1.33,1.09-.49.78-1.93,1.39-2.79l2.35-.96c.97-.06,2.38-1.09,3.17.12.54.18.83.12,1.37-.12.42-.91,1.99-.73,2.83-.54-.25.97-1.63,1.57-2.05,2.24,1.88.37,3.2-1.27,4.9-.79.73.18,1.75.3,2.23-.36.18-.54.18-1.15-.12-1.63-1.21-.06-1.58-1.81-2.91-1.63Z"/>
            <path class="cls-1" d="M181.68,27.11c.62.18,1.54.31,2.1-.06.25-.5.74-.99.44-1.67-.74-.49-1.42-1.66-2.41-1.66-.93.68-.12,1.98-.5,2.97l.37.43Z"/>
            <path class="cls-1" d="M187.99,28.34h.37c.74.18.99.8,1.3,1.36.68.19.88-.31,1.32-.73.25-.62.5-1.55.07-2.23-.93-.99-2.12-1.55-3.42-1.05-.56,1.11,1.18,1.6.37,2.66Z"/>
            <path class="cls-1" d="M186.38,35.48c.24-.49.68-.47.49-1.08-.31-1.11-1.55-.69-2.35-1.18-.3-1.55,1.3-2.46,1.24-3.88-.44-1.06-1.61-1.36-2.66-1.61l-3.09,1.29c-.24-.5-.86-.99-1.43-1.23-.37,1.91.07,4.37-.05,6.42l-.31.5c-1.23.24-2.41.61-3.58,1.11-.19.55.12.64.3,1.08.94.3,2.05-.17,2.97-.17.19.74-.25,1.63-.12,2.37-.24.74-.43,1.73-1.17,1.86l-.19,2.1c0,.31,0,.74.37.74,2.16-1.79,1.73-5.1,2.28-7.51.68.56.56,2.13,1.3,2.81.56.13.37-.29.61-.72.37-.62-.06-1.64-.37-2.2.12-.37,1.62-.24,1.81-.43.37.99.19,2.75.12,3.74-.31,1.42-2.24.17-3.11.11-.06.37.37.56.37.87,1.73.68.8,3.46,3.09,3.34.62-.43,1.17-.93,1.55-1.61-.13-2.1-.19-4.6.06-6.58.55.07,1.36.25,1.86-.12ZM182.74,33.78l-.91.19c0-.74.13-2.09-.86-2.4-.43-.12-.66-.51-.78.29l.35,2.37c-.12.13-.83.22-1.09.22-.12-1.18.25-2.64.32-3.81l2.91-1.24.19.24c-.19,1.43,0,2.72-.13,4.14Z"/>
            <path class="cls-1" d="M185.57,32.3c2.72-.44,5.81-.74,8.84-.62.37-.19.55-.62.55-.99-.37-.5-.86-1.48-1.66-1.3-2.59.87-5.38,1.11-8.04,1.74-.12.49.18.8.31,1.17Z"/>
            <path class="cls-1" d="M213.07,31.97l.12-1.03c-.24-1.09-1.16-1.15-2.07-1.27-1.77,3.53-3.4,5.15-5.63,8.05,3.03-.91,5.4-3.33,7.58-5.75Z"/>
            <path class="cls-1" d="M217.79,31.79c-.91.24-1.95-.54-2.56-.18.36.61,1.82.67,1.15,1.51l.79-.05c1.22.3,2,1.45,2.55,2.42.84.31,1.57-.24,2.06-.73.3-.55.13-.73.01-1.4-.97-1.21-2.42-2.85-3.99-1.57Z"/>
            <path class="cls-1" d="M194.47,41.06c-.86.31-2.04.19-2.53-.68-.8-2.04-.24-4.68.67-6.53l-.18-.37c-.98-1.85-2.47.06-3.89-.18-.56-.19-1.11-.5-1.42.18.25,1.73-.07,3.4-.63,4.82-.43.74-.8,1.91-1.72,2.04v.74c0,.5.16.93.71.93,1.3-.86,1.92-2.35,2.6-3.71.49-1.24.56-2.6,1.05-3.83.32,0,.94-.31,1.19-.06-.5,3.09-1.77,7.32,1.14,9.42,1.22.68,4.37.54,5.92-.89.8-2.29-.86-4.14-1.12-6.18-.31,1.48-.19,3.56-1.79,4.31Z"/>
            <path class="cls-1" d="M218.98,40.2c-1.21.48-2.81.73-4.2.36-.06-.97.06-2.16.24-3.07l2.69-.31c.6-.29,1.08-.79.84-1.46-.42-.61-1.2-.91-1.88-1.15-1.81,1.27-4.18,1.15-6.29,1.51-.12,1.33,1.25,1.6,2.28,2.03-.36.78.12,2.5-.36,3.29-1.21.18-2.76.12-3.85.72-.43.18-.31.61-.19.91.42.48.91,1.03,1.64.97,3.39-.54,7.25-.6,10.52-.12.85-.55,1.21-1.34.97-2.31-.79-.55-1.51-1.15-2.42-1.39Z"/>
          </g>
        </g>
      </g>
    </g>
  </g>
</svg>